<svg class="injected-svg" id="logo" height="60px" width="80px" viewBox="170 160 200 200"
     xmlns="http://www.w3.org/2000/svg">
    <g xmlns="http://www.w3.org/2000/svg" fill="#6d50bf" id="shape-svg">
        <g id="Слой_2">
            <g id="Слой_1-2">
                <path transform="translate(175, 172) scale(1.5,1.5)"
                      d="M128.52,58.5a44.83,44.83,0,0,0-3.12-17.17,45.83,45.83,0,0,0-8.9-14.1,10.89,10.89,0,0,0-2.34-8.87A48.54,48.54,0,0,0,99.92,5.74C94.3,2.44,88,1.4,83.56,2.59A16.12,16.12,0,0,0,78.36.25a10.76,10.76,0,0,0-4.46,0c-1.67.35-3.32.77-5,1.17l-3.52.67h-.56c-2.81,0-5.67-.1-8.49,0-1.43.06-2.77.14-4.22.34a41,41,0,0,0-4.95,1.09l.32,0c-.72.07-1.45.14-2.15.24A43.37,43.37,0,0,0,34.82,6.54C27.51,10.27,19.53,15,16,20.28c-2.11,3.59-4.14,6.62-5.87,9.62l-.23.27a11.32,11.32,0,0,0-1.25,1.32s0,0-.05.05h0a8.14,8.14,0,0,0-1.14,1.84,12.5,12.5,0,0,1,1.2-1.8l.38.29c-.37.72-.71,1.46-1,2.19C5.28,37.73,3.2,43.16,1.5,44.34c1.22,2.29,2-1.35,3.07-4.42-.5,1.63-.87,3.46-1.31,5.3S2.62,49,2.31,50.83c0,.21-.06.41-.08.62-.1-1.6-.58-2.8.62-4.37-.4-1-.91-.78-1.57.29C.76,51-.56,57.78.86,58.2a9.67,9.67,0,0,1-.86,2L1.22,62c-.1.27-.16.54-.24.8a7,7,0,0,0,.47-.69c.48,4.64,1,9.67,3.26,12.68a8.72,8.72,0,0,0,1.16.55c-.27,1.4-.89-.45-1.66-.71.87,3.15,2,5.4,3.35,5.85-.5-1.71-1.06-3.37-1.44-5.08a1.87,1.87,0,0,0,1.06.09C8.48,76.91,9.6,78,9.59,78.6c.51,2.18.86,4.16,1.18,6.05h0l0,0c.26,1.56.52,3.07.8,4.52l-.41-.1c-.93-2-2.51-4.77-2.83-5.94a35.7,35.7,0,0,0,.53,4.12l1.33.78a1.32,1.32,0,0,1,.13,1.09,1.25,1.25,0,0,0-.09.12.94.94,0,0,1-.36.27c0,.07.12.13.17.2a3.32,3.32,0,0,0-.11.49l.46-.09,1.17,1.33c.14,0,.19-.07.23-.17a11.12,11.12,0,0,0,2.34,7.22l.2,0a26,26,0,0,0,3.47,5.4c.27.46,1.86,1.14,3.47,1.61l.31.26A5.13,5.13,0,0,0,24,106a2,2,0,0,0,1.12-.12c-.19-1.51-1.66-3.82-3.14-6.2.17.14.31.31.48.45l-.2-.36-.3-.12a29,29,0,0,1-2.92-5.47c.18-1.49.19-2.32.24-3.71.13-2.19,3,.17,3.93.56a20.45,20.45,0,0,0-1.73-6.81A44,44,0,0,0,27.63,91l-.82.7c2.2,1.52,1.61,3.1,4.34,4.53l.08,0h0c.18-1.56-1-2.56-1.93-3.88A44.55,44.55,0,0,0,52.18,102l13,1.51a44.44,44.44,0,0,0,6.4.23,27.23,27.23,0,0,1-6.71,2.43c.29,2.27.56,4.74,2.2,6.89s4.73,4,10.58,4a25.29,25.29,0,0,0,5.3-.71,37.66,37.66,0,0,0,8.63-.49,27.83,27.83,0,0,1,2.28-1.78c.79-.66,1.65-1.33,2.54-2,1.82-1.27,3.67-2.75,5.51-4.22.68-.54,1.34-1.1,2-1.66l1.25-.35c.68-1,1.82-2.19,2.89-3.45l0,0c1.13-1.12,2.18-2.21,3-3.17A46.71,46.71,0,0,0,124.94,80c.68-1.81,1.23-3.67,1.79-5.5s.79-3.74,1.14-5.6a55.93,55.93,0,0,0,.54-5.62C128.57,61.19,128.52,60.24,128.52,58.5Zm-117,31.39.18,0c0,.22,0,.43.06.64A5.35,5.35,0,0,0,11.51,89.89Z"/>
                <path transform="translate(175, 172) scale(1.5,1.5)"
                      d="M62.46,119c-1,0-2.59-.37-2.08-1l-1.52.68,4.53.66c-.77-.84-2.16-1.5-2-2.59l-1.95-.39A8,8,0,0,1,62.46,119Z"/>
                <path transform="translate(175, 172) scale(1.5,1.5)"
                      d="M63.26,117.16c.87-.78-.35-1.25-1.93-1.63-1.76.48,2.47-.15,1.08,1.25C62.82,116.83,63.14,116.88,63.26,117.16Z"/>
                <path transform="translate(175, 172) scale(1.5,1.5)"
                      d="M62.41,116.78a5.75,5.75,0,0,1-1-.19s0,.07,0,.11l.93.18S62.37,116.82,62.41,116.78Z"/>
                <path transform="translate(175, 172) scale(1.5,1.5)"
                      d="M51.53,116.08a1.45,1.45,0,0,0,.72.85C52.32,116.69,52,116.4,51.53,116.08Z"/>
                <path transform="translate(175, 172) scale(1.5,1.5)"
                      d="M50,113.12c1.19.67,1.81,1.18,1.38,1.88l-1-.3c-.26.41.5.92,1.12,1.38C51.34,115.11,53.43,114.49,50,113.12Z"/>
                <path transform="translate(175, 172) scale(1.5,1.5)"
                      d="M56.18,112.08l-.72.2,4.44,2.29C59.7,112.74,57.75,113.81,56.18,112.08Z"/>
                <path transform="translate(175, 172) scale(1.5,1.5)"
                      d="M5.32,85.44l.17-.38L5,84.63C5.1,84.88,5.18,85.12,5.32,85.44Z"/>
                <path transform="translate(175, 172) scale(1.5,1.5)"
                      d="M3.75,79.73A35.82,35.82,0,0,0,4.27,84c.3.23.5.44.74.66C4.12,82,5.4,82.49,3.75,79.73Z"/>
                <path transform="translate(175, 172) scale(1.5,1.5)"
                      d="M5.49,85.06A9.24,9.24,0,0,1,7.6,89a11.12,11.12,0,0,0,2.82,4.92A84.91,84.91,0,0,0,5.8,84.39Z"/>
            </g>
        </g>
    </g>
    <path xmlns="http://www.w3.org/2000/svg" id="SvgjsPath104401645"
          d="M6.45-21L16.65-21Q16.65-20.97 16.92-20.05Q17.19-19.14 17.63-17.65Q18.06-16.17 18.61-14.28Q19.17-12.39 19.74-10.44L19.74-10.44Q21.09-5.82 22.80 0L22.80 0L14.10 0L13.50-3L9.60-3L9 0L0.30 0L6.45-21ZM10.50-7.80L12.60-7.80L11.55-13.20L10.50-7.80ZM32.10-14.10L32.10-14.10Q32.46-14.70 33-15.21L33-15.21Q33.45-15.63 34.13-15.99Q34.80-16.35 35.70-16.35L35.70-16.35Q36.15-16.35 36.52-16.27Q36.90-16.20 37.20-16.11L37.20-16.11Q37.53-15.99 37.80-15.90L37.80-15.90L36.60-9.30Q36.24-9.48 35.88-9.60L35.88-9.60Q35.55-9.72 35.19-9.81Q34.83-9.90 34.50-9.90L34.50-9.90Q33.36-9.90 32.58-9.04Q31.80-8.19 31.80-6.60L31.80-6.60L31.80 0L24.60 0L24.60-15.90L31.50-15.90L32.10-14.10ZM40.20-9.90L38.10-9.90L38.10-15.90L40.20-15.90L40.20-21L47.40-21L47.40-15.90L50.10-15.90L50.10-9.90L47.40-9.90L47.40-7.35Q47.40-6.45 47.80-6Q48.21-5.55 48.90-5.55L48.90-5.55Q49.14-5.55 49.34-5.56Q49.53-5.58 49.71-5.61L49.71-5.61Q49.89-5.64 50.10-5.70L50.10-5.70L50.10 0.30Q49.74 0.39 49.32 0.45L49.32 0.45Q48.96 0.51 48.47 0.55Q47.97 0.60 47.40 0.60L47.40 0.60Q44.01 0.60 42.10-1.40Q40.20-3.39 40.20-7.35L40.20-7.35L40.20-9.90ZM52.50-7.95L52.50-7.95Q52.50-9.69 53.18-11.22Q53.85-12.75 55.05-13.89Q56.25-15.03 57.93-15.69Q59.61-16.35 61.65-16.35L61.65-16.35Q63.66-16.35 65.36-15.69Q67.05-15.03 68.25-13.89Q69.45-12.75 70.13-11.22Q70.80-9.69 70.80-7.95L70.80-7.95Q70.80-6.21 70.13-4.68Q69.45-3.15 68.25-2.01Q67.05-0.87 65.36-0.21Q63.66 0.45 61.65 0.45L61.65 0.45Q59.61 0.45 57.93-0.21Q56.25-0.87 55.05-2.01Q53.85-3.15 53.18-4.68Q52.50-6.21 52.50-7.95ZM63.60-7.95L63.60-7.95Q63.60-8.97 63.02-9.58Q62.43-10.20 61.65-10.20L61.65-10.20Q60.87-10.20 60.29-9.58Q59.70-8.97 59.70-7.95L59.70-7.95Q59.70-6.93 60.29-6.31Q60.87-5.70 61.65-5.70L61.65-5.70Q62.43-5.70 63.02-6.31Q63.60-6.93 63.60-7.95ZM72.60-7.95L72.60-7.95Q72.60-9.69 73.28-11.22Q73.95-12.75 75.15-13.89Q76.35-15.03 78.03-15.69Q79.71-16.35 81.75-16.35L81.75-16.35Q83.76-16.35 85.45-15.69Q87.15-15.03 88.35-13.89Q89.55-12.75 90.22-11.22Q90.90-9.69 90.90-7.95L90.90-7.95Q90.90-6.21 90.22-4.68Q89.55-3.15 88.35-2.01Q87.15-0.87 85.45-0.21Q83.76 0.45 81.75 0.45L81.75 0.45Q79.71 0.45 78.03-0.21Q76.35-0.87 75.15-2.01Q73.95-3.15 73.28-4.68Q72.60-6.21 72.60-7.95ZM83.70-7.95L83.70-7.95Q83.70-8.97 83.12-9.58Q82.53-10.20 81.75-10.20L81.75-10.20Q80.97-10.20 80.39-9.58Q79.80-8.97 79.80-7.95L79.80-7.95Q79.80-6.93 80.39-6.31Q80.97-5.70 81.75-5.70L81.75-5.70Q82.53-5.70 83.12-6.31Q83.70-6.93 83.70-7.95ZM97.80-22.20L96.90-13.50L93.30-13.50L92.40-22.20L97.80-22.20ZM113.25-4.80L113.25-4.80Q113.25-3.72 112.80-2.77Q112.35-1.83 111.47-1.11Q110.58-0.39 109.26 0.03Q107.94 0.45 106.20 0.45L106.20 0.45Q104.31 0.45 102.93 0.01Q101.55-0.42 100.59-0.96L100.59-0.96Q99.48-1.59 98.70-2.40L98.70-2.40L100.95-6Q101.40-5.58 101.97-5.25L101.97-5.25Q102.48-4.95 103.16-4.72Q103.83-4.50 104.70-4.50L104.70-4.50Q105.03-4.50 105.24-4.68Q105.45-4.86 105.45-5.10L105.45-5.10Q105.45-5.31 105.02-5.52Q104.58-5.73 103.94-6Q103.29-6.27 102.53-6.64Q101.76-7.02 101.12-7.60Q100.47-8.19 100.04-9.04Q99.60-9.90 99.60-11.10L99.60-11.10Q99.60-12.18 100.05-13.13Q100.50-14.07 101.39-14.79Q102.27-15.51 103.59-15.93Q104.91-16.35 106.65-16.35L106.65-16.35Q108.18-16.35 109.40-15.95Q110.61-15.54 111.48-15.06L111.48-15.06Q112.47-14.52 113.25-13.80L113.25-13.80L111-10.20Q110.64-10.53 110.19-10.80L110.19-10.80Q109.80-11.04 109.28-11.22Q108.75-11.40 108.15-11.40L108.15-11.40Q107.82-11.40 107.61-11.22Q107.40-11.04 107.40-10.80L107.40-10.80Q107.40-10.56 107.84-10.37Q108.27-10.17 108.92-9.90Q109.56-9.63 110.33-9.25Q111.09-8.88 111.73-8.29Q112.38-7.71 112.81-6.85Q113.25-6 113.25-4.80ZM134.55 0L129.45-9.30L129.45 0L121.65 0L121.65-21L130.35-21L135.45-11.70L135.45-21L143.25-21L143.25 0L134.55 0ZM154.35-16.35L154.35-16.35Q156.09-16.35 157.62-15.69Q159.15-15.03 160.29-13.89Q161.43-12.75 162.09-11.22Q162.75-9.69 162.75-7.95L162.75-7.95L162.75-6.45L153.15-6.45Q153.27-5.97 153.60-5.61L153.60-5.61Q153.87-5.28 154.41-5.04Q154.95-4.80 155.85-4.80L155.85-4.80Q156.42-4.80 156.92-4.98Q157.41-5.16 157.77-5.40L157.77-5.40Q158.19-5.67 158.55-6L158.55-6L161.10-1.95Q160.44-1.29 159.48-0.75L159.48-0.75Q158.67-0.30 157.50 0.07Q156.33 0.45 154.80 0.45L154.80 0.45Q152.88 0.45 151.26-0.21Q149.64-0.87 148.46-2.01Q147.27-3.15 146.61-4.68Q145.95-6.21 145.95-7.95L145.95-7.95Q145.95-9.69 146.61-11.22Q147.27-12.75 148.41-13.89Q149.55-15.03 151.08-15.69Q152.61-16.35 154.35-16.35ZM153-9.30L155.70-9.30Q155.70-10.20 155.31-10.65Q154.92-11.10 154.35-11.10L154.35-11.10Q153.78-11.10 153.39-10.65Q153-10.20 153-9.30L153-9.30ZM166.05-9.90L163.95-9.90L163.95-15.90L166.05-15.90L166.05-21L173.25-21L173.25-15.90L175.95-15.90L175.95-9.90L173.25-9.90L173.25-7.35Q173.25-6.45 173.66-6Q174.06-5.55 174.75-5.55L174.75-5.55Q174.99-5.55 175.19-5.56Q175.38-5.58 175.56-5.61L175.56-5.61Q175.74-5.64 175.95-5.70L175.95-5.70L175.95 0.30Q175.59 0.39 175.17 0.45L175.17 0.45Q174.81 0.51 174.32 0.55Q173.82 0.60 173.25 0.60L173.25 0.60Q169.86 0.60 167.96-1.40Q166.05-3.39 166.05-7.35L166.05-7.35L166.05-9.90ZM192.90-15.90L194.25-8.10L195.15-15.90L202.65-15.90L199.05 0L191.85 0L190.05-8.10L188.25 0L181.05 0L177.45-15.90L184.95-15.90L185.85-8.10L187.20-15.90L192.90-15.90ZM203.25-7.95L203.25-7.95Q203.25-9.69 203.92-11.22Q204.60-12.75 205.80-13.89Q207-15.03 208.68-15.69Q210.36-16.35 212.40-16.35L212.40-16.35Q214.41-16.35 216.10-15.69Q217.80-15.03 219-13.89Q220.20-12.75 220.88-11.22Q221.55-9.69 221.55-7.95L221.55-7.95Q221.55-6.21 220.88-4.68Q220.20-3.15 219-2.01Q217.80-0.87 216.10-0.21Q214.41 0.45 212.40 0.45L212.40 0.45Q210.36 0.45 208.68-0.21Q207-0.87 205.80-2.01Q204.60-3.15 203.92-4.68Q203.25-6.21 203.25-7.95ZM214.35-7.95L214.35-7.95Q214.35-8.97 213.76-9.58Q213.18-10.20 212.40-10.20L212.40-10.20Q211.62-10.20 211.03-9.58Q210.45-8.97 210.45-7.95L210.45-7.95Q210.45-6.93 211.03-6.31Q211.62-5.70 212.40-5.70L212.40-5.70Q213.18-5.70 213.76-6.31Q214.35-6.93 214.35-7.95ZM231.45-14.10L231.45-14.10Q231.81-14.70 232.35-15.21L232.35-15.21Q232.80-15.63 233.47-15.99Q234.15-16.35 235.05-16.35L235.05-16.35Q235.50-16.35 235.88-16.27Q236.25-16.20 236.55-16.11L236.55-16.11Q236.88-15.99 237.15-15.90L237.15-15.90L235.95-9.30Q235.59-9.48 235.23-9.60L235.23-9.60Q234.90-9.72 234.54-9.81Q234.18-9.90 233.85-9.90L233.85-9.90Q232.71-9.90 231.93-9.04Q231.15-8.19 231.15-6.60L231.15-6.60L231.15 0L223.95 0L223.95-15.90L230.85-15.90L231.45-14.10ZM255.90-15.90L251.70-8.10L256.50 0L248.55 0L245.55-6.30L245.55 0L238.35 0L238.35-22.20L245.55-22.20L245.55-9.90L248.10-15.90L255.90-15.90Z" fill="#000000" fontsize="30" transform="matrix(1,0,0,1,143.10000000000002,267.29999999999995)"/>
</svg>